# xmcd
#
# Track frame offsets: 
#        183
#        37478
#        50815
#        67655
#        85513
#        108253
#        121760
#        150110
#        175458
#        196328
#
# Disc length: 2876 seconds
#
# Revision: 4
# Processed by: cddbd v1.5.1PL0 Copyright (c) Steve Scherf et al.
# Submitted via: ExactAudioCopy v0.95a5
#
DISCID=790b3a0a
DTITLE=Various Artist - Soul and Blues
DYEAR=1900
DGENRE=Blues
TTITLE0=Jimmy Smith - Honky Tonk
TTITLE1=Jimmy Smith - Farther On Up The Road
TTITLE2=Albert King - Corina Corina
TTITLE3=Albert King - She Caught The Katy And Left Me A Mule To Ride
TTITLE4=Little Milton - Eight Men And Four Women
TTITLE5=Jimmy Whiterspoon - Baby, Baby, Baby
TTITLE6=Hank Crawford (with Leon Thomas) - You Send Me
TTITLE7=Ruth Brown - Nobody Knows You (When You're Down And Out)
TTITLE8=Staple Singer - Drown Yourself
TTITLE9=Albert King - For The Love Of A Woman
EXTD=
EXTT0=Jimmy Smith
EXTT1=Jimmy Smith
EXTT2=Albert King
EXTT3=Albert King
EXTT4=Little Milton
EXTT5=Jimmy Witherspoon
EXTT6=Hank Crawford
EXTT7=Ruth Brown
EXTT8=Staple Singers
EXTT9=Albert King
PLAYORDER=
